# xmcd
#
# Track frame offsets:
#	150
#	49033
#	85924
#	122821
#
# Disc length: 2118 seconds
#
# Revision: 1
# Processed by: cddbd v1.4PL0 Copyright (c) Steve Scherf et al.
# Submitted via: EasyCDDAExtractor 5.1.0
#
DISCID=2c084404
DTITLE=compilation disc - Klapa Nevera
DYEAR=1900
DGENRE=Country
TTITLE0=Dir Po Kvarneru (Polka Mix)
TTITLE1=Mi Gremo Va Opatiju (Valcer Mix)
TTITLE2=Fiume Mix
TTITLE3=Najdraza Rijeko (English Mix)
EXTD=
EXTT0=
EXTT1=
EXTT2=
EXTT3=
PLAYORDER=
